<svg version="1.1" id="Layer_1" xmlns="http://www.w3.org/2000/svg" x="0" y="0" viewBox="0 0 32 32" xml:space="preserve"><style>.st0{fill:none}.st1{fill:#020202}</style><path class="st0" d="M8.9 27.6c.1 0 .2 0 .2-.1l-.2.1zM7.7 7.4l-.2.1-.2.2.5-.4-.1.1zM19.1 15l-.7.1c-1.9.8-3.8 1.4-5.8 1.7-2.2 4.4-3.6 7.2-4.1 8.3 2-.7 3.9-1.6 5.7-2.7 1.1-.6 2.3-1.3 3.3-2l2.8-2.2c.6-.2 1.1-1.1 1.6-2.5v-.1c-.9-.5-1.9-.7-2.8-.6zM24.6 6.2v-.6h.2c0 .2.1.3.2.3.3-.3.4-.7.5-1.1v-.2c-.2-.2-.4-.3-.6-.4h-.2v.5h-.2c0-.2-.1-.4-.2-.5h-.1V4c-.8-.5-1.7-.6-2.5-.4-.2 0-.8.1-1.8.3v-.4h-.3c-1 .2-1.5.4-1.5.7l-2.3 5.2c-.3.1-.5.8-.7 1.9-.3.4-.4.8-.5 1.2.1 0 .1 0 .2.1 1.5-.7 3.1-1.4 4.7-1.9.9-.5 1.6-1.1 2.4-1.8.1 0 .3-.3.7-.8.4.1 1.1-.6 2-1.9z"/><path class="st1" d="M6.2 8.4l.1.2.4-.3-.2-.3c-.1.1-.2.2-.3.4zM10.2 4.5l-.6.3V5h.1c.3-.3.5-.4.5-.5zM15.9 9.5l2.3-5.1c0-.3.5-.6 1.5-.7h.3V4l1.8-.3c.9-.2 1.8 0 2.5.4-.2-.8-1.1-1.1-2.8-.9l-1.8.3v-.4h-.3c-1 .2-1.5.4-1.5.7L15.6 9c-.2.1-.5.8-.7 1.9-.3.4-.5.9-.5 1.5v.2h.3c.1-.4.3-.8.5-1.2.2-1.1.4-1.8.7-1.9zM24.8 4.7v-.5h.2c.2.1.4.2.5.4-.1-.4-.4-.7-.8-.9h-.2v.5h-.1c.1.2.2.3.2.5h.2zM18.4 15l.7-.1c1-.2 1.9 0 2.8.6v-.3c-.8-.7-1.9-1-3-.8l-.6.1c-1.9.8-3.8 1.4-5.8 1.7-2.8 5.6-4.3 8.6-4.4 8.9h.1c.1 0 .3 0 .4-.1.5-1.2 1.9-3.9 4.1-8.3 1.9-.3 3.9-.9 5.7-1.7zM25.3 11.1L28 8.7c.7-1.1 1.1-2.4 1.1-3.7v-.4c0-.5-.2-1-.5-1.3.1.3.2.6.2.8v.4c0 1.3-.4 2.7-1.1 3.8L25 10.6c-1 .6-1.4 1-1.4 1.2.1.1.2.2.3.4.1-.2.6-.6 1.4-1.1zM6.7 7.7l-.1.1h.1v-.1zM21.2 21.2c-1 .7-2.5 1.8-4.5 3.3-.6.4-1.4.6-2.1.7v.1h.1l.5-.2v.1c-.9.7-2 1.1-3.2 1.1-1 .5-2 .9-3 1.3l-.2.1c-.5.1-1.1.3-1.8.5l-1 .3c-.5.9-1 1.8-1.7 2.5-.1.2-.2.5-.3.8v.2h.2c.8-.9 1.5-1.9 2.1-3 2.1-.6 4.1-1.3 6-2.3 1.1 0 2.3-.4 3.2-1.1v-.1l-.5.2h-.1v-.1c.8 0 1.5-.3 2.1-.6 2-1.5 3.5-2.6 4.5-3.3 3.1-2.3 4.6-4.5 4.4-6.7-.1-.2-.2-.3-.3-.5.2 2.1-1.2 4.3-4.4 6.7zM13.8 4.6c-1.7.6-3.3 1.5-4.8 2.6h-.2c0-.1-.1-.2-.4-.3l-.6.3-.5.5L7 8v.3c-.1 0-.2.1-.3.1l.3.4c.5-.5 1-1 1.6-1.4.3.1.4.2.5.3h.2c1.3-1 2.7-1.7 4.1-2.3.1-.2.3-.3.4-.5v-.3zM4.9 28.8v-.2h-.2l-.2.1h-.3v-.2h-.1c-.2.2-.5.3-.7.3l-.2.3c0 .1.1.2.1.3.4 0 .7-.2 1.1-.4h.1v.2h.2l.1-.1c.1-.1.1-.2.1-.3z"/><path d="M25 10.6l2.7-2.4c.7-1.1 1.1-2.4 1.1-3.8v-.3c0-.3-.1-.6-.2-.8-.5-1-1.4-1.7-2.5-2.1-1-.7-2.8-1-5.4-1.1-2.9.4-5.7 1.1-8.3 2.2-1 .7-2.1 1.4-3.2 2v.2c.1 0 .2-.1.3-.1.1 0 .2 0 .2.1l.2-.1h.1v.1s-.1.2-.5.4-1 .7-1.8 1.3l.3.2-.2-.1c0 .1-.1.1-.3.1v.1l.2.3c-.1 0-.2 0-.3-.1-.6.1-1.1.5-1.4 1v.4c.2-.2.4-.4.7-.6V7.8h-.1l-.2.1V8l.2.3v.1c.1-.2.2-.3.3-.4l.3-.3.2-.2.2-.2.1-.1.5-.3c.3.1.4.2.4.3h.2c1.5-1.1 3.1-2 4.8-2.6v.2c-.1.2-.3.4-.4.5-.1.1-.1.1-.2.1 0 .1.1.3.2.4-.6 1.9-1.3 3.7-2.2 5.4-2.3 6-5 11.8-8.1 17.4 0 .1.1.2.1.3l.3-.1c.3-.1.5-.2.7-.3h.1v.2h.2l.2-.1h.2v.4c-.1.2-.2.5-.3.7-.3.5-.6 1-.7 1.6v.1H4l.3-.4c.7-.8 1.3-1.6 1.7-2.5l1-.3c.7-.2 1.3-.4 1.8-.6l.2-.1c1-.4 2-.8 3-1.3 1.1 0 2.3-.4 3.2-1.1V25l-.5.2h-.1V25c.8-.1 1.5-.3 2.1-.7 2-1.5 3.5-2.6 4.5-3.3 3.1-2.3 4.6-4.5 4.5-6.6-.5-.8-1.1-1.6-1.8-2.2l-.3-.4c0-.2.4-.6 1.4-1.2zm-4.8 7.6l-2.8 2.2c-1.1.7-2.2 1.4-3.3 2-1.8 1.1-3.7 2-5.7 2.7-.1 0-.3.1-.4.1h-.1c.1-.4 1.6-3.3 4.4-8.9 2-.3 4-.9 5.8-1.7l.7-.1c1.1-.2 2.2.1 3 .8v.4c-.5 1.4-1 2.2-1.6 2.5zm1.7-9.1c-.7.7-1.5 1.3-2.4 1.8-1.6.5-3.2 1.1-4.7 1.9-.1 0-.1 0-.2-.1h-.3v-.2c0-.5.2-1.1.5-1.5.2-1.1.4-1.8.7-1.9L17.8 4c0-.3.5-.6 1.5-.7h.3v.3c1-.2 1.6-.2 1.8-.2 1.7-.2 2.6.2 2.8.9v.2h.2v-.7h.2c.4.2.7.5.8.9v.2c0 .4-.2.8-.5 1.1-.1 0-.2-.1-.2-.3h-.2v.6c-.9 1.4-1.6 2.1-2 2.1-.3.4-.5.6-.6.7z" fill="#f5dc5f"/></svg>